<?xml version="1.0" standalone="no"?><!DOCTYPE svg PUBLIC "-//W3C//DTD SVG 1.1//EN" "http://www.w3.org/Graphics/SVG/1.1/DTD/svg11.dtd"><svg t="1626078116099" class="icon" viewBox="0 0 1024 1024" version="1.1" xmlns="http://www.w3.org/2000/svg" p-id="5371" xmlns:xlink="http://www.w3.org/1999/xlink" width="32" height="32"><defs><style type="text/css"></style></defs><path d="M511.9488 0A402.4832 402.4832 0 0 0 110.08 402.2784c0 214.0672 360.0896 594.2784 375.3472 610.3552a36.4544 36.4544 0 0 0 26.4704 11.3152h0.7168a35.84 35.84 0 0 0 26.7776-12.4928l124.7232-143.0016c165.6832-203.1104 249.6512-359.9872 249.6512-466.2272A402.5344 402.5344 0 0 0 511.9488 0z m0 585.1648a182.7328 182.7328 0 0 1-182.4256-182.8864 182.7328 182.7328 0 1 1 365.2608 0 182.7328 182.7328 0 0 1-182.6304 182.8352z" p-id="5372" fill="#666666"></path></svg>